<svg xmlns="http://www.w3.org/2000/svg" width="24" height="24" viewBox="0 0 24 24"><g><g><g><path d="M10.995 9.49V6.497a.719.719 0 0 0-.222-.526.719.719 0 0 0-.526-.222.708.708 0 0 0-.538.222.739.739 0 0 0-.21.526v2.991H6.508a.708.708 0 0 0-.538.222.739.739 0 0 0-.21.526c0 .202.07.378.21.526.14.148.32.222.538.222h2.991v2.99c0 .203.07.379.21.527.14.148.32.222.538.222a.719.719 0 0 0 .526-.222.719.719 0 0 0 .222-.526v-2.991h2.99a.719.719 0 0 0 .527-.222.719.719 0 0 0 .222-.526.719.719 0 0 0-.222-.526.719.719 0 0 0-.526-.222zm-.71 9.153A8.266 8.266 0 0 1 7.046 18a8.44 8.44 0 0 1-2.666-1.808 8.076 8.076 0 0 1-1.78-2.665 7.98 7.98 0 0 1-.67-3.241 7.98 7.98 0 0 1 .67-3.241c.41-1 1.004-1.889 1.78-2.666a8.44 8.44 0 0 1 2.666-1.808 8.266 8.266 0 0 1 3.24-.642c1.144 0 2.224.214 3.242.642a8.44 8.44 0 0 1 2.665 1.808A8.44 8.44 0 0 1 18 7.045a8.266 8.266 0 0 1 .643 3.24A8.266 8.266 0 0 1 18 13.528a8.44 8.44 0 0 1-1.808 2.665A8.44 8.44 0 0 1 13.527 18a8.266 8.266 0 0 1-3.241.643zm7.93-1.795c1.57-1.91 2.356-4.098 2.356-6.562 0-2.84-1.004-5.264-3.013-7.273C15.549 1.004 13.125 0 10.286 0c-2.84 0-5.264 1.004-7.273 3.013C1.004 5.023 0 7.446 0 10.286c0 2.839 1.004 5.263 3.013 7.272 2.01 2.009 4.433 3.013 7.273 3.013 2.464 0 4.651-.785 6.562-2.357l5.518 5.518a.909.909 0 0 0 .67.268c.268 0 .5-.09.696-.268.179-.196.268-.428.268-.696 0-.268-.09-.5-.268-.697z"/></g></g></g></svg>