<?xml version="1.0" encoding="utf-8"?><svg xmlns="http://www.w3.org/2000/svg" xmlns:xlink="http://www.w3.org/1999/xlink"><symbol viewBox="0 0 24 24" id="ampliar" xmlns="http://www.w3.org/2000/svg"><path d="M10.995 9.49V6.497a.719.719 0 00-.222-.526.719.719 0 00-.526-.222.708.708 0 00-.538.222.739.739 0 00-.21.526v2.991H6.508a.708.708 0 00-.538.222.739.739 0 00-.21.526.74.74 0 00.748.748h2.991v2.99a.741.741 0 00.748.749.719.719 0 00.526-.222.719.719 0 00.222-.526v-2.991h2.99a.719.719 0 00.527-.222.719.719 0 00.222-.526.719.719 0 00-.222-.526.719.719 0 00-.526-.222zm-.71 9.153A8.266 8.266 0 017.046 18a8.44 8.44 0 01-2.666-1.808 8.076 8.076 0 01-1.78-2.665 7.98 7.98 0 01-.67-3.241 7.98 7.98 0 01.67-3.241 8.08 8.08 0 011.78-2.666 8.44 8.44 0 012.666-1.808 8.266 8.266 0 013.24-.642c1.144 0 2.224.214 3.242.642a8.44 8.44 0 012.665 1.808A8.44 8.44 0 0118 7.045a8.266 8.266 0 01.643 3.24A8.266 8.266 0 0118 13.528a8.44 8.44 0 01-1.808 2.665A8.44 8.44 0 0113.527 18a8.266 8.266 0 01-3.241.643zm7.93-1.795c1.57-1.91 2.356-4.098 2.356-6.562 0-2.84-1.004-5.264-3.013-7.273C15.549 1.004 13.125 0 10.286 0c-2.84 0-5.264 1.004-7.273 3.013C1.004 5.023 0 7.446 0 10.286c0 2.839 1.004 5.263 3.013 7.272 2.01 2.009 4.433 3.013 7.273 3.013 2.464 0 4.651-.785 6.562-2.357l5.518 5.518a.909.909 0 00.67.268c.268 0 .5-.09.696-.268a.997.997 0 00.268-.696c0-.268-.09-.5-.268-.697z"/></symbol></svg>